<?xml version="1.0" encoding="UTF-8" standalone="no"?>
<svg
   xmlns:dc="http://purl.org/dc/elements/1.1/"
   xmlns:cc="http://creativecommons.org/ns#"
   xmlns:rdf="http://www.w3.org/1999/02/22-rdf-syntax-ns#"
   xmlns:svg="http://www.w3.org/2000/svg"
   xmlns="http://www.w3.org/2000/svg"
   xmlns:sodipodi="http://sodipodi.sourceforge.net/DTD/sodipodi-0.dtd"
   xmlns:inkscape="http://www.inkscape.org/namespaces/inkscape"
   viewBox="0 0 500 500"
   id="svg2"
   version="1.1"
   inkscape:version="0.91 r13725"
   sodipodi:docname="five-or-more.svg"
   width="500"
   height="500"
   inkscape:export-filename="/home/gioyik/Imágenes/spow.png"
   inkscape:export-xdpi="90"
   inkscape:export-ydpi="90">
  <metadata
     id="metadata97">
    <rdf:RDF>
      <cc:Work
         rdf:about="">
        <dc:format>image/svg+xml</dc:format>
        <dc:type
           rdf:resource="http://purl.org/dc/dcmitype/StillImage" />
        <dc:title></dc:title>
      </cc:Work>
    </rdf:RDF>
  </metadata>
  <sodipodi:namedview
     pagecolor="#414141"
     bordercolor="#666666"
     borderopacity="1"
     objecttolerance="10"
     gridtolerance="10"
     guidetolerance="10"
     inkscape:pageopacity="1"
     inkscape:pageshadow="2"
     inkscape:window-width="1280"
     inkscape:window-height="774"
     id="namedview95"
     showgrid="false"
     showguides="false"
     inkscape:zoom="0.61458333"
     inkscape:cx="-121.8983"
     inkscape:cy="264.1138"
     inkscape:window-x="0"
     inkscape:window-y="0"
     inkscape:window-maximized="1"
     inkscape:current-layer="svg2" />
  <defs
     id="defs4">
    <linearGradient
       id="linearGradient3764"
       x1="1"
       x2="47"
       gradientUnits="userSpaceOnUse"
       gradientTransform="matrix(0,-1,1,0,-1.5e-6,47.999998)">
      <stop
         stop-color="#3d3d3d"
         stop-opacity="1"
         id="stop7" />
      <stop
         offset="1"
         stop-color="#474747"
         stop-opacity="1"
         id="stop9" />
    </linearGradient>
    <clipPath
       id="clipPath-379239243">
      <g
         transform="translate(0,-1004.3622)"
         id="g12">
        <path
           d="m -24,13 c 0,1.105 -0.672,2 -1.5,2 -0.828,0 -1.5,-0.895 -1.5,-2 0,-1.105 0.672,-2 1.5,-2 0.828,0 1.5,0.895 1.5,2 z"
           transform="matrix(15.333333,0,0,11.5,414.99999,878.8622)"
           id="path14"
           inkscape:connector-curvature="0"
           style="fill:#1890d0" />
      </g>
    </clipPath>
    <clipPath
       id="clipPath-384932891">
      <g
         transform="translate(0,-1004.3622)"
         id="g17">
        <path
           d="m -24,13 c 0,1.105 -0.672,2 -1.5,2 -0.828,0 -1.5,-0.895 -1.5,-2 0,-1.105 0.672,-2 1.5,-2 0.828,0 1.5,0.895 1.5,2 z"
           transform="matrix(15.333333,0,0,11.5,414.99999,878.8622)"
           id="path19"
           inkscape:connector-curvature="0"
           style="fill:#1890d0" />
      </g>
    </clipPath>
  </defs>
  <g
     id="g33"
     transform="translate(0,452)" />
  <path
     style="fill:#4caee9;fill-opacity:1;fill-rule:nonzero;stroke:none"
     inkscape:connector-curvature="0"
     id="path71"
     d="m 172.55896,390.0886 c 0,24.15 -19.6,43.75 -43.75,43.75 -24.15,0 -43.750001,-19.6 -43.750001,-43.75 0,-24.15 19.600001,-43.75 43.750001,-43.75 24.15,0 43.75,19.6 43.75,43.75 m 0,0" />
  <path
     style="fill:#4caee9;fill-opacity:1;fill-rule:nonzero;stroke:none"
     inkscape:connector-curvature="0"
     id="path73"
     d="m 347.55896,390.0886 c 0,24.15 -19.6,43.75 -43.75,43.75 -24.15,0 -43.75,-19.6 -43.75,-43.75 0,-24.15 19.6,-43.75 43.75,-43.75 24.15,0 43.75,19.6 43.75,43.75 m 0,0" />
  <path
     style="fill:#c9de38;fill-opacity:1;fill-rule:nonzero;stroke:none"
     inkscape:connector-curvature="0"
     id="path75"
     d="m 435.05896,390.0886 c 0,24.15 -19.6,43.75 -43.75,43.75 -24.15,0 -43.75,-19.6 -43.75,-43.75 0,-24.15 19.6,-43.75 43.75,-43.75 24.15,0 43.75,19.6 43.75,43.75 m 0,0" />
  <path
     style="fill:#f4522d;fill-opacity:1;fill-rule:nonzero;stroke:none"
     inkscape:connector-curvature="0"
     id="path79"
     d="m 435.05896,302.5886 c 0,24.15 -19.6,43.75 -43.75,43.75 -24.15,0 -43.75,-19.6 -43.75,-43.75 0,-24.15 19.6,-43.75 43.75,-43.75 24.15,0 43.75,19.6 43.75,43.75 m 0,0" />
  <path
     style="fill:#c9de38;fill-opacity:1;fill-rule:nonzero;stroke:none"
     inkscape:connector-curvature="0"
     id="path81"
     d="m 260.05896,215.0886 c 0,24.15 -19.6,43.75 -43.75,43.75 -24.15,0 -43.75,-19.6 -43.75,-43.75 0,-24.14999 19.6,-43.75 43.75,-43.75 24.15,0 43.75,19.60001 43.75,43.75 m 0,0" />
  <path
     style="fill:#34cf47;fill-opacity:1;fill-rule:nonzero;stroke:none"
     inkscape:connector-curvature="0"
     id="path85"
     d="m 172.55896,127.5886 c 0,24.15 -19.6,43.75 -43.75,43.75 -24.15,0 -43.750001,-19.6 -43.750001,-43.75 0,-24.15 19.600001,-43.749993 43.750001,-43.749993 24.15,0 43.75,19.599993 43.75,43.749993 m 0,0" />
  <path
     style="fill:#f4522d;fill-opacity:1;fill-rule:nonzero;stroke:none"
     inkscape:connector-curvature="0"
     id="path87"
     d="m 260.05896,127.5886 c 0,24.15 -19.6,43.75 -43.75,43.75 -24.15,0 -43.75,-19.6 -43.75,-43.75 0,-24.15 19.6,-43.749993 43.75,-43.749993 24.15,0 43.75,19.599993 43.75,43.749993 m 0,0" />
  <path
     style="fill:#34cf47;fill-opacity:1;fill-rule:nonzero;stroke:none"
     inkscape:connector-curvature="0"
     id="path89"
     d="m 435.05896,127.5886 c 0,24.15 -19.6,43.75 -43.75,43.75 -24.15,0 -43.75,-19.6 -43.75,-43.75 0,-24.15 19.6,-43.749993 43.75,-43.749993 24.15,0 43.75,19.599993 43.75,43.749993 m 0,0" />
</svg>
